<svg xmlns="http://www.w3.org/2000/svg" viewBox="0 0 447 248.33"><defs><style>.cls-1,.cls-2{fill:none;}.cls-1,.cls-2,.cls-3{stroke:#000;}.cls-1,.cls-3{stroke-width:2px;}.cls-3{fill:#fff;stroke-miterlimit:10;}</style></defs><g id="Layer_1" data-name="Layer 1"><polyline class="cls-1" points="212.53 124.55 211.92 122.89 211.66 120.87 211.83 118.81 212.41 117.08 212.71 116.51 212.84 116.18 212.85 115.75 212.82 115.32 212.68 114.99 212.32 114.22 211.64 113.3 210.48 112.15 209.26 111.36 207.29 110.53 204.16 110.01 167.21 106.05 166.73 105.94 166.06 105.58 165.46 105.08 165.33 104.91 156.22 89.65 155.65 88.86 154.86 87.89 153.86 86.97 152.67 86.2 151.23 85.59 149.64 85.24 147.79 84.93 145.8 84.74 91.56 84.67 89.78 85.03 88.64 85.45 87.5 87.16 81.81 107.14 81.17 108.59 80.75 108.49 80.75 101.37 80.64 100.71 80.38 100.09 80.02 99.75 79.79 99.66 79.06 99.46 74.08 99.46 73.42 99.53 72.83 99.78 72.48 100.09 72.28 100.58 72.19 100.94 72.16 101.35 72.14 101.97 72.12 117.69 72.12 124.71 72.12 125.14 72.28 125.85 72.37 126.08 72.57 126.33 72.75 126.54 73.06 126.65 73.62 126.7 75.66 126.83 77.23 126.9 78.54 126.83 79.88 126.53 80.46 126.29 80.96 126.06 81.01 128.11 80.96 128.84 80.89 129.14 80.44 129.76 80.07 130.01 79.52 129.96 78.99 129.97 78.63 130.17 78.26 130.45 77.97 131.08 77.88 131.81 77.81 135.43 77.85 135.95 78.04 136.36 78.52 136.75 79.15 136.87 87.48 136.84 90.67 137.03"/><polygon class="cls-2" points="86.39 104.47 119.46 88.89 120.15 88.46 120.69 88.39 121.14 88.7 121.33 89.15 121.45 89.65 121.26 90.34 120.76 91.02 120.24 91.28 90.75 105.13 89.85 105.32 89.09 105.39 88.14 105.27 87.29 104.96 86.39 104.47"/><polygon class="cls-2" points="121.31 95 100.18 104.88 100.29 105.27 119.84 105.24 120.24 105.22 120.63 105.02 120.85 104.85 121.08 104.63 121.18 104.38 121.25 104.1 121.29 103.81 121.32 103.67 121.3 103.5 121.31 95"/><polygon class="cls-2" points="126.94 104.73 127.35 105.45 129.8 105.08 130.58 104.87 131.29 104.59 154.5 93.58 154.77 93.38 154.93 93.11 154.97 92.82 154.86 92.52 154.67 92.09 154.37 91.68 154.04 91.47 153.52 91.44 153.09 91.59 128.18 103.29 127.94 103.41 127.72 103.64 127.38 104.11 126.94 104.73"/><polygon class="cls-2" points="139.08 105.06 139.7 105.26 157.72 105.26 158.01 105.26 158.25 105.21 158.51 105.08 161.41 103.21 157.73 97.12 157.37 96.97 157.01 96.9 156.46 96.97 139.08 105.06"/><polyline class="cls-1" points="212.53 124.55 213.18 126.32 213.34 131.1"/></g><g id="Layer_2" data-name="Layer 2"><g id="big_tyre" data-name="big tyre"><path d="M114.53,153.72l-.35-.24c-.35-.25-.35-.25-.67.07.11.17.24.33.34.5a.31.31,0,0,1-.07.26,7.3,7.3,0,0,1-2.13,1.27c-.17,0-.28,0-.37-.1s-.1-.12-.14-.18c-.28-.33-.28-.33-.67-.1.07.2.15.4.2.6a.23.23,0,0,1-.11.19,7.76,7.76,0,0,1-2.46.68c-.18,0-.29,0-.34-.2a1.21,1.21,0,0,0-.09-.2c-.19-.4-.19-.4-.62-.26a5.43,5.43,0,0,1,.06.55c0,.14-.07.23-.24.24a7.56,7.56,0,0,1-2.42,0c-.18-.05-.29-.09-.29-.29a1,1,0,0,0,0-.17c-.09-.5,0-.41-.53-.47,0,.2-.06.41-.12.61a.25.25,0,0,1-.2.13,8.06,8.06,0,0,1-2.46-.6c-.17-.1-.26-.19-.21-.39a.44.44,0,0,0,0-.16c0-.44,0-.44-.39-.57-.1.19-.18.38-.28.56a.21.21,0,0,1-.21.06,6.27,6.27,0,0,1-2.36-1.4c0-.09.08-.22.12-.34.18-.53.24-.36-.21-.7a4.6,4.6,0,0,1-.41.47.27.27,0,0,1-.26,0,7.27,7.27,0,0,1-1.78-1.72c-.09-.15-.11-.25,0-.39s.23-.32.35-.5l-.27-.36c-.2.13-.38.26-.57.36a.29.29,0,0,1-.25-.07,7.24,7.24,0,0,1-1.29-2.15c0-.17,0-.27.1-.36a.88.88,0,0,0,.15-.12c.34-.28.34-.28.15-.7-.2.07-.39.15-.59.2a.25.25,0,0,1-.21-.11,6.11,6.11,0,0,1-.67-2.64l.37-.18c.38-.18.38-.18.29-.66l-.37.1c-.29.05-.41,0-.44-.33,0-.47-.12-1-.13-1.42a6.68,6.68,0,0,1,.15-1.08s.08-.09.14-.11l.33-.06c.41-.08.41-.08.41-.52,0,0,0,0-.05,0-.73,0-.73,0-.61-.76a5.79,5.79,0,0,1,.54-1.95c.09-.16.17-.23.34-.2a1.64,1.64,0,0,0,.22,0c.43,0,.43,0,.54-.4-.18-.09-.37-.16-.54-.26a.3.3,0,0,1-.08-.23,7.7,7.7,0,0,1,1.2-2.17c.15-.15.26-.22.45-.11l.21.07c.41.15.41.15.63-.24-.16-.14-.33-.27-.47-.42a.22.22,0,0,1,0-.21,6.23,6.23,0,0,1,2-1.92l.34.24c.35.24.35.24.69-.07a3.3,3.3,0,0,1-.34-.49.25.25,0,0,1,0-.25,7.24,7.24,0,0,1,2.15-1.29c.16,0,.26,0,.35.1a2.09,2.09,0,0,0,.14.17c.28.33.28.33.67.12a4.49,4.49,0,0,1-.19-.59c0-.06.06-.18.12-.21a7.56,7.56,0,0,1,2.44-.67c.19,0,.3,0,.35.21a1,1,0,0,0,.07.15c.19.4.19.4.63.3a5.85,5.85,0,0,1,0-.59.32.32,0,0,1,.21-.2,7.14,7.14,0,0,1,2.44,0c.17,0,.28.08.28.27a1.06,1.06,0,0,0,0,.19c.07.45.07.45.53.46,0-.19,0-.38.09-.57s.14-.19.3-.16c.5.1,1,.14,1.52.27a5.69,5.69,0,0,1,1,.41s.08.12.08.18a1.33,1.33,0,0,1,0,.28c0,.43,0,.43.42.59,0-.12.07-.24.11-.36.1-.28.23-.34.5-.22a12.56,12.56,0,0,1,1.29.6,6.77,6.77,0,0,1,.86.66s0,.12,0,.17a1.42,1.42,0,0,1-.1.29c-.15.41-.15.41.23.66a4.49,4.49,0,0,1,.41-.46.24.24,0,0,1,.23,0,7.72,7.72,0,0,1,1.77,1.7c.12.19.14.32,0,.49s-.2.29-.31.44l.27.36c.2-.13.38-.26.57-.36a.3.3,0,0,1,.26.09,7.25,7.25,0,0,1,1.27,2.12c0,.18,0,.28-.1.38a1,1,0,0,0-.16.12c-.34.29-.34.29-.12.69a4.3,4.3,0,0,1,.57-.2.3.3,0,0,1,.23.13,7.71,7.71,0,0,1,.68,2.36c0,.19,0,.32-.23.37l-.17.08c-.38.17-.38.17-.28.65.12,0,.24-.07.36-.09.3-.05.41,0,.44.32a13.87,13.87,0,0,1,.13,1.42,5.71,5.71,0,0,1-.14,1.08c0,.05-.09.09-.14.11s-.22,0-.33.06c-.41.08-.41.08-.41.52a5.41,5.41,0,0,1,.58.12.27.27,0,0,1,.14.22,7.42,7.42,0,0,1-.6,2.41c-.09.15-.16.23-.34.19h-.22c-.43,0-.43-.05-.54.39a4.39,4.39,0,0,1,.53.27.25.25,0,0,1,.07.25,7.92,7.92,0,0,1-1.13,2.08c-.19.2-.35.28-.6.15l-.1,0c-.4-.15-.4-.15-.65.23.16.14.32.26.47.41a.23.23,0,0,1,0,.21A6.4,6.4,0,0,1,114.53,153.72Zm3.85-10.86a12.7,12.7,0,1,0-12.75,12.56A12.7,12.7,0,0,0,118.38,142.86Z"/><path d="M93.65,142.81a12,12,0,1,1,12.07,11.95A12,12,0,0,1,93.65,142.81Zm21.38,0a9.34,9.34,0,1,0-9.35,9.29A9.29,9.29,0,0,0,115,142.83Z"/><path d="M114.07,142.83a8.38,8.38,0,1,1-8.44-8.33A8.34,8.34,0,0,1,114.07,142.83Zm-8.4,7a7,7,0,1,0-7-7.09A7,7,0,0,0,105.67,149.85Z"/></g><path d="M209.13,147.84l-2.48,7.85h-3.2l8.13-24.94h3.72l8.17,24.94h-3.3l-2.56-7.85Zm7.84-2.51-2.34-7.18c-.53-1.63-.89-3.11-1.24-4.55h-.07c-.36,1.48-.75,3-1.21,4.51l-2.34,7.22Z"/><path d="M227,131.08a41.85,41.85,0,0,1,6.56-.52c4.44,0,7.6,1.07,9.69,3.11s3.37,4.92,3.37,9-1.2,7.4-3.44,9.69-5.93,3.59-10.58,3.59a46.52,46.52,0,0,1-5.6-.3Zm3.08,22a18.49,18.49,0,0,0,3.13.19c6.6,0,10.18-3.85,10.18-10.58,0-5.89-3.16-9.63-9.69-9.63a16.52,16.52,0,0,0-3.62.34Z"/><path d="M258.15,131.08a28.43,28.43,0,0,1,5.64-.52c3.09,0,5.08.56,6.57,1.81a5.35,5.35,0,0,1,2,4.41,5.91,5.91,0,0,1-4.05,5.48v.07a6.36,6.36,0,0,1,4.94,6.25,6.86,6.86,0,0,1-2,5c-1.67,1.59-4.36,2.33-8.27,2.33a34.17,34.17,0,0,1-4.79-.3Zm3.09,10.21H264c3.27,0,5.18-1.77,5.18-4.18,0-2.92-2.12-4.07-5.25-4.07a12.82,12.82,0,0,0-2.73.22Zm0,12a14.81,14.81,0,0,0,2.59.15c3.19,0,6.14-1.22,6.14-4.84,0-3.41-2.8-4.82-6.18-4.82h-2.55Z"/><path d="M280.48,130.75v24.94h-3.09V130.75Z"/><path d="M285.88,130.75H289V153h10.22v2.7h-13.3Z"/><path d="M314,147.84l-2.48,7.85h-3.2l8.13-24.94h3.73l8.16,24.94h-3.3l-2.55-7.85Zm7.85-2.51-2.35-7.18c-.53-1.63-.88-3.11-1.24-4.55h-.07c-.35,1.48-.74,3-1.21,4.51l-2.34,7.22Z"/><path d="M331.45,151.76a10.62,10.62,0,0,0,5.54,1.63c3.16,0,5-1.74,5-4.25,0-2.33-1.27-3.67-4.5-5-3.91-1.44-6.32-3.55-6.32-7.07,0-3.88,3.09-6.77,7.74-6.77a10.45,10.45,0,0,1,5.28,1.22l-.85,2.63A9.15,9.15,0,0,0,338.8,133c-3.26,0-4.51,2-4.51,3.74,0,2.33,1.46,3.48,4.76,4.81,4,1.63,6.1,3.67,6.1,7.33,0,3.85-2.73,7.18-8.37,7.18a12.07,12.07,0,0,1-6.11-1.59Z"/><path d="M121.37,131h13.11v2.77h-10v8.51h9.2V145h-9.2v11.59h-3.15Z"/><path d="M139,131h13.1v2.77h-10v8.51h9.2V145h-9.2v11.59H139Z"/><path d="M156.54,131.3a31.18,31.18,0,0,1,6-.53c3.36,0,5.53.64,7,2.09a6.54,6.54,0,0,1,1.92,4.86,6.69,6.69,0,0,1-4.59,6.54v.11c1.88.68,3,2.51,3.58,5.17a42.91,42.91,0,0,0,1.87,7h-3.25a35.8,35.8,0,0,1-1.62-6.12c-.72-3.53-2-4.86-4.87-5h-3v11.1h-3.14ZM159.68,143h3.21c3.36,0,5.49-1.94,5.49-4.87,0-3.3-2.28-4.75-5.6-4.79a12.21,12.21,0,0,0-3.1.31Z"/><path class="cls-1" d="M169.55,137.36c-.12-11.36,10.63-14,18.26-13.82,8.58.21,17.13,2.37,17.29,13.66l6.46-.06"/><path id="big_skjerm" data-name="big skjerm" class="cls-1" d="M89.79,136.06c0-8.34,6.3-12,17.77-11.71,12.78.33,15.48,8.73,15.76,14.21"/><path d="M72.23,159.39c17.71-1.37,35.91-1.79,53.69-2,17.9-.33,35.79,1.12,53.68,1.41s35.8-.63,53.69-1.19c41.76-1.06,83.56-1,125.27,1.77v.5c-41.71,2.75-83.51,2.81-125.27,1.74-17.89-.56-35.78-1.51-53.69-1.2s-35.78,1.74-53.69,1.4c-4.41,0-13.46-.16-17.89-.28-11.93-.31-23.86-.73-35.79-1.69v-.5Z"/><g id="big_tyre-2" data-name="big tyre"><path d="M192.63,156.36c.07.24.14.44.19.64a.21.21,0,0,1-.1.17,7.62,7.62,0,0,1-2.4.69c-.19,0-.31,0-.36-.22a.89.89,0,0,0-.08-.17c-.18-.4-.18-.4-.62-.28a3.66,3.66,0,0,1,.05.57.31.31,0,0,1-.22.21,7.27,7.27,0,0,1-2.42.05c-.19-.05-.31-.1-.3-.31a1,1,0,0,0,0-.17c-.08-.44-.08-.44-.5-.45-.07.22-.14.44-.22.64a.25.25,0,0,1-.2.09,7.5,7.5,0,0,1-2.37-.59c-.18-.1-.3-.18-.23-.4a.44.44,0,0,0,0-.16c0-.44,0-.44-.39-.56-.1.19-.18.38-.29.56a.3.3,0,0,1-.23.05,7.41,7.41,0,0,1-2.16-1.21c-.14-.13-.19-.23-.1-.4a.67.67,0,0,0,.06-.15c.15-.41.15-.41-.23-.68a4.22,4.22,0,0,1-.38.46c-.09.11-.2.09-.31,0-.28-.23-.57-.46-.86-.67a4.11,4.11,0,0,1-1-1.13.29.29,0,0,1,0-.24c.11-.2.25-.37.38-.56l-.27-.37c-.19.13-.37.26-.55.36a.21.21,0,0,1-.21-.06,7.09,7.09,0,0,1-1.28-2.15c-.05-.17,0-.27.1-.37s.3-.25.46-.39l-.17-.43a3.63,3.63,0,0,1-.58.2.27.27,0,0,1-.24-.14,7.6,7.6,0,0,1-.67-2.33c0-.2,0-.32.22-.38l.18-.08c.38-.18.38-.18.27-.63a3.68,3.68,0,0,1-.57.06c-.07,0-.21-.12-.21-.19a7.12,7.12,0,0,1,0-2.48c0-.19.12-.27.3-.28l.22,0c.41-.07.42-.08.39-.52a3.57,3.57,0,0,1-.57-.1.31.31,0,0,1-.14-.25,7.06,7.06,0,0,1,.59-2.38c.09-.16.18-.24.36-.2h.2c.42,0,.42,0,.55-.39a5.68,5.68,0,0,1-.55-.28.24.24,0,0,1-.06-.23,7.51,7.51,0,0,1,1.2-2.16c.13-.14.22-.21.4-.1a1,1,0,0,0,.18.06c.4.15.4.15.65-.23a4.6,4.6,0,0,1-.47-.41.27.27,0,0,1,0-.26,11.48,11.48,0,0,1,.95-1.14,8.93,8.93,0,0,1,1-.77l.37.26c.35.24.35.24.79-.14a1.63,1.63,0,0,1-.34-.21c-.2-.21-.18-.38.06-.54a7.31,7.31,0,0,1,2-1.19c.18-.05.3-.07.4.1a.61.61,0,0,0,.13.15c.27.33.27.33.7.11a3.47,3.47,0,0,1-.18-.33c-.13-.26-.07-.4.2-.5s.62-.21.92-.35a4,4,0,0,1,1.44-.28.54.54,0,0,1,.28.16.63.63,0,0,1,.1.2c.19.41.19.41.63.31a4,4,0,0,1,0-.59.27.27,0,0,1,.2-.2,7.46,7.46,0,0,1,2.45,0c.17.05.28.08.28.28a1.48,1.48,0,0,0,0,.19c.08.44.08.44.54.46,0-.19,0-.39.09-.57s.13-.2.3-.16c.43.08.87.11,1.29.23a7.84,7.84,0,0,1,1.14.43c.06,0,.1.12.11.19a1.63,1.63,0,0,1,0,.31c0,.43,0,.5.45.55.1-.19.18-.39.29-.57a.23.23,0,0,1,.21,0,7.28,7.28,0,0,1,2.16,1.2c.14.13.22.23.12.42a1,1,0,0,0-.07.18c-.15.41-.15.41.24.62l.51-.59a9,9,0,0,1,1.91,1.84c.1.17.13.29,0,.44s-.21.31-.33.48l.27.36a4.12,4.12,0,0,1,.54-.35.23.23,0,0,1,.22.06,7.29,7.29,0,0,1,1.29,2.16c0,.16,0,.26-.11.35a1.58,1.58,0,0,0-.15.12c-.34.29-.34.29-.14.69.22-.07.44-.15.66-.2a.24.24,0,0,1,.19.1,7,7,0,0,1,.7,2.58.54.54,0,0,0,0,.08l-.41.19c-.37.17-.38.19-.26.63a3.33,3.33,0,0,1,.54-.07c.16,0,.25.07.26.25,0,.5.13,1,.13,1.51a5.4,5.4,0,0,1-.14,1.05s-.08.09-.13.11l-.33.06c-.41.08-.41.08-.43.52.2,0,.41.07.61.13a.28.28,0,0,1,.12.21,7.43,7.43,0,0,1-.6,2.4c-.09.17-.17.25-.36.21l-.25,0c-.42,0-.42,0-.56.4a5.29,5.29,0,0,1,.54.25.27.27,0,0,1,.08.25,7.43,7.43,0,0,1-1.2,2.17c-.14.14-.24.19-.41.1a1,1,0,0,0-.18-.07c-.4-.14-.4-.14-.64.24a4.6,4.6,0,0,1,.47.41.24.24,0,0,1,0,.23,7.44,7.44,0,0,1-1.74,1.8c-.16.1-.26.11-.39,0l-.13-.1c-.37-.26-.37-.26-.8.11a1.81,1.81,0,0,1,.32.22c.19.21.17.38-.06.55s-.55.42-.84.59-.85.43-1.28.62a.26.26,0,0,1-.23-.06c-.14-.13-.27-.28-.41-.42S192.79,156.36,192.63,156.36Zm7.9-12.33a12.67,12.67,0,1,0-12.66,12.58A12.59,12.59,0,0,0,200.53,144Z"/><path d="M175.85,144a12,12,0,1,1,12,12A12,12,0,0,1,175.85,144Zm21.39,0a9.35,9.35,0,1,0-9.36,9.28A9.3,9.3,0,0,0,197.24,144Z"/><path d="M196.28,144a8.38,8.38,0,1,1-8.42-8.33A8.37,8.37,0,0,1,196.28,144Zm-8.41,7a7,7,0,1,0,.08-14,7,7,0,1,0-.08,14Z"/></g><ellipse class="cls-1" cx="187.89" cy="143.91" rx="12.35" ry="12.15"/><ellipse class="cls-1" cx="105.56" cy="142.83" rx="12.35" ry="12.15"/><circle class="cls-3" cx="188" cy="144.08" r="9.11"/><circle class="cls-3" cx="105.67" cy="142.94" r="8.9"/></g></svg>